<svg width="300" height="260" viewBox="0 0 300 260" fill="none" xmlns="http://www.w3.org/2000/svg">
<rect width="300" height="260" rx="56" fill="#C5FF00"/>
<path d="M167.707 84.4326L144.865 113.53L171.044 134.08L193.884 104.982V132.346L151.851 185.894L138.561 175.461L161.56 146.162L135.381 125.612L113.006 154.116C116.153 148.696 117.728 142.025 117.728 134.104V120.738L154.416 74L167.707 84.4326ZM80.8643 76.7598C92.1281 76.7598 101.088 79.8743 107.744 86.1035C114.4 92.2475 117.728 101.08 117.728 112.6V120.738L99.0918 144.479L112.382 154.912L113.006 154.116C111.576 156.578 109.823 158.782 107.744 160.728C101.088 166.871 92.1281 169.943 80.8643 169.943C69.6003 169.943 60.6404 166.871 53.9844 160.728C47.3284 154.498 44 145.624 44 134.104V112.6C44 101.08 47.3284 92.2475 53.9844 86.1035C60.6403 79.8744 69.6004 76.7598 80.8643 76.7598ZM218.972 76.5518C231.004 76.5518 240.135 79.6236 246.364 85.7676C252.679 91.8262 255.836 100.872 255.836 112.903V129.8C255.836 141.832 252.679 150.919 246.364 157.063C240.135 163.122 231.004 166.151 218.972 166.151H193.88V151.304H193.884V132.346L207.175 115.414L193.885 104.981L193.884 104.982V91.3994H193.88V76.5518H218.972ZM80.8643 91.8643C74.6349 91.8643 69.7276 93.6988 66.1436 97.3682C62.6452 101.037 60.8965 105.944 60.8965 112.088V134.616C60.8966 140.76 62.6451 145.667 66.1436 149.336C69.7276 153.005 74.6349 154.84 80.8643 154.84C87.1787 154.84 92.0854 153.005 95.584 149.336C99.0826 145.667 100.832 140.76 100.832 134.616V112.088C100.832 105.944 99.0825 101.037 95.584 97.3682C92.0854 93.6989 87.1788 91.8643 80.8643 91.8643ZM210.78 150.792H219.228C226.054 150.792 231.047 149 234.204 145.416C237.361 141.832 238.939 136.797 238.939 130.312V112.392C238.939 105.821 237.361 100.787 234.204 97.2881C231.047 93.7041 226.054 91.9121 219.228 91.9121H210.78V150.792Z" fill="black"/>
</svg>
