<svg xmlns="http://www.w3.org/2000/svg" width="300" height="300" viewBox="0 0 300 300" fill="none"><metadata><rdf:RDF xmlns:rdf="http://www.w3.org/1999/02/22-rdf-syntax-ns#" xmlns:dc="http://purl.org/dc/elements/1.1/"><rdf:Description><dc:creator>RealFaviconGenerator</dc:creator><dc:source>https://realfavicongenerator.net</dc:source></rdf:Description></rdf:RDF></metadata><rect width="300" height="300" rx="56" fill="#C5FF00"></rect><path d="M167.707 104.433L144.865 133.53L171.044 154.08L193.884 124.982V152.346L151.851 205.894L138.561 195.461L161.56 166.162L135.381 145.612L113.006 174.116C116.153 168.696 117.728 162.025 117.728 154.104V140.738L154.416 94L167.707 104.433ZM80.8643 96.7598C92.1281 96.7598 101.088 99.8743 107.744 106.104C114.4 112.247 117.728 121.08 117.728 132.6V140.738L99.0918 164.479L112.382 174.912L113.006 174.116C111.576 176.578 109.823 178.782 107.744 180.728C101.088 186.871 92.1281 189.943 80.8643 189.943C69.6003 189.943 60.6404 186.871 53.9844 180.728C47.3284 174.498 44 165.624 44 154.104V132.6C44 121.08 47.3284 112.247 53.9844 106.104C60.6403 99.8744 69.6004 96.7598 80.8643 96.7598ZM218.972 96.5518C231.004 96.5518 240.135 99.6236 246.364 105.768C252.679 111.826 255.836 120.872 255.836 132.903V149.8C255.836 161.832 252.679 170.919 246.364 177.063C240.135 183.122 231.004 186.151 218.972 186.151H193.88V171.304H193.884V152.346L207.175 135.414L193.885 124.981L193.884 124.982V111.399H193.88V96.5518H218.972ZM80.8643 111.864C74.6349 111.864 69.7276 113.699 66.1436 117.368C62.6452 121.037 60.8965 125.944 60.8965 132.088V154.616C60.8966 160.76 62.6451 165.667 66.1436 169.336C69.7276 173.005 74.6349 174.84 80.8643 174.84C87.1787 174.84 92.0854 173.005 95.584 169.336C99.0826 165.667 100.832 160.76 100.832 154.616V132.088C100.832 125.944 99.0825 121.037 95.584 117.368C92.0854 113.699 87.1788 111.864 80.8643 111.864ZM210.78 170.792H219.228C226.054 170.792 231.047 169 234.204 165.416C237.361 161.832 238.939 156.797 238.939 150.312V132.392C238.939 125.821 237.361 120.787 234.204 117.288C231.047 113.704 226.054 111.912 219.228 111.912H210.78V170.792Z" fill="black"></path></svg>